<?xml version="1.0" encoding="utf-8"?><svg xmlns="http://www.w3.org/2000/svg" version="1.1" xmlns:xlink="http://www.w3.org/1999/xlink" viewBox="0 0 248 248"><rect width="248" height="248" fill="#FFFFFF"></rect><path shape-rendering="geometricPrecision" d="M 8 8 v 56 h 56 v -56 h -56 z M 16 16 v 40 h 40 v -40 h -40 z M 240 8 v 56 h -56 v -56 h 56 z M 232 16 v 40 h -40 v -40 h 40 z M 8 240 v -56 h 56 v 56 h -56 z M 16 232 v -40 h 40 v 40 h -40 z" fill-rule="evenodd" fill="#000000"/><path shape-rendering="geometricPrecision" d="M 24 24 v 24 h 24 v -24 h -24 z M 224 24 v 24 h -24 v -24 h 24 z M 24 224 v -24 h 24 v 24 h -24 z" fill="#000000"/><path shape-rendering="geometricPrecision" d="M 8 80 v 8 h 8 v -8 h -8 z M 8 128 v 8 h 8 v -8 h -8 z M 8 136 v 8 h 8 v -8 h -8 z M 8 144 v 8 h 8 v -8 h -8 z M 8 152 v 8 h 8 v -8 h -8 z M 8 160 v 8 h 8 v -8 h -8 z M 16 80 v 8 h 8 v -8 h -8 z M 16 96 v 8 h 8 v -8 h -8 z M 16 104 v 8 h 8 v -8 h -8 z M 16 144 v 8 h 8 v -8 h -8 z M 16 168 v 8 h 8 v -8 h -8 z M 24 72 v 8 h 8 v -8 h -8 z M 24 104 v 8 h 8 v -8 h -8 z M 24 120 v 8 h 8 v -8 h -8 z M 24 136 v 8 h 8 v -8 h -8 z M 24 152 v 8 h 8 v -8 h -8 z M 32 72 v 8 h 8 v -8 h -8 z M 32 88 v 8 h 8 v -8 h -8 z M 32 96 v 8 h 8 v -8 h -8 z M 32 104 v 8 h 8 v -8 h -8 z M 32 136 v 8 h 8 v -8 h -8 z M 32 144 v 8 h 8 v -8 h -8 z M 32 160 v 8 h 8 v -8 h -8 z M 40 72 v 8 h 8 v -8 h -8 z M 40 96 v 8 h 8 v -8 h -8 z M 40 112 v 8 h 8 v -8 h -8 z M 40 120 v 8 h 8 v -8 h -8 z M 40 128 v 8 h 8 v -8 h -8 z M 40 144 v 8 h 8 v -8 h -8 z M 40 152 v 8 h 8 v -8 h -8 z M 40 160 v 8 h 8 v -8 h -8 z M 40 168 v 8 h 8 v -8 h -8 z M 48 72 v 8 h 8 v -8 h -8 z M 48 96 v 8 h 8 v -8 h -8 z M 48 104 v 8 h 8 v -8 h -8 z M 48 112 v 8 h 8 v -8 h -8 z M 48 120 v 8 h 8 v -8 h -8 z M 48 128 v 8 h 8 v -8 h -8 z M 48 136 v 8 h 8 v -8 h -8 z M 48 144 v 8 h 8 v -8 h -8 z M 48 168 v 8 h 8 v -8 h -8 z M 56 72 v 8 h 8 v -8 h -8 z M 56 88 v 8 h 8 v -8 h -8 z M 56 104 v 8 h 8 v -8 h -8 z M 56 120 v 8 h 8 v -8 h -8 z M 56 136 v 8 h 8 v -8 h -8 z M 56 152 v 8 h 8 v -8 h -8 z M 56 168 v 8 h 8 v -8 h -8 z M 64 72 v 8 h 8 v -8 h -8 z M 64 96 v 8 h 8 v -8 h -8 z M 64 112 v 8 h 8 v -8 h -8 z M 64 128 v 8 h 8 v -8 h -8 z M 64 168 v 8 h 8 v -8 h -8 z M 72 8 v 8 h 8 v -8 h -8 z M 72 24 v 8 h 8 v -8 h -8 z M 72 32 v 8 h 8 v -8 h -8 z M 72 40 v 8 h 8 v -8 h -8 z M 72 48 v 8 h 8 v -8 h -8 z M 72 56 v 8 h 8 v -8 h -8 z M 72 120 v 8 h 8 v -8 h -8 z M 72 128 v 8 h 8 v -8 h -8 z M 72 144 v 8 h 8 v -8 h -8 z M 72 160 v 8 h 8 v -8 h -8 z M 72 184 v 8 h 8 v -8 h -8 z M 72 192 v 8 h 8 v -8 h -8 z M 72 200 v 8 h 8 v -8 h -8 z M 72 208 v 8 h 8 v -8 h -8 z M 72 216 v 8 h 8 v -8 h -8 z M 80 8 v 8 h 8 v -8 h -8 z M 80 24 v 8 h 8 v -8 h -8 z M 80 32 v 8 h 8 v -8 h -8 z M 80 40 v 8 h 8 v -8 h -8 z M 80 64 v 8 h 8 v -8 h -8 z M 80 72 v 8 h 8 v -8 h -8 z M 80 80 v 8 h 8 v -8 h -8 z M 80 128 v 8 h 8 v -8 h -8 z M 80 136 v 8 h 8 v -8 h -8 z M 80 160 v 8 h 8 v -8 h -8 z M 80 168 v 8 h 8 v -8 h -8 z M 80 176 v 8 h 8 v -8 h -8 z M 80 184 v 8 h 8 v -8 h -8 z M 80 192 v 8 h 8 v -8 h -8 z M 80 200 v 8 h 8 v -8 h -8 z M 80 232 v 8 h 8 v -8 h -8 z M 88 40 v 8 h 8 v -8 h -8 z M 88 48 v 8 h 8 v -8 h -8 z M 88 56 v 8 h 8 v -8 h -8 z M 88 64 v 8 h 8 v -8 h -8 z M 88 88 v 8 h 8 v -8 h -8 z M 88 104 v 8 h 8 v -8 h -8 z M 88 144 v 8 h 8 v -8 h -8 z M 88 152 v 8 h 8 v -8 h -8 z M 88 168 v 8 h 8 v -8 h -8 z M 88 200 v 8 h 8 v -8 h -8 z M 96 64 v 8 h 8 v -8 h -8 z M 96 72 v 8 h 8 v -8 h -8 z M 96 88 v 8 h 8 v -8 h -8 z M 96 96 v 8 h 8 v -8 h -8 z M 96 120 v 8 h 8 v -8 h -8 z M 96 136 v 8 h 8 v -8 h -8 z M 96 152 v 8 h 8 v -8 h -8 z M 96 168 v 8 h 8 v -8 h -8 z M 96 208 v 8 h 8 v -8 h -8 z M 96 224 v 8 h 8 v -8 h -8 z M 104 8 v 8 h 8 v -8 h -8 z M 104 16 v 8 h 8 v -8 h -8 z M 104 24 v 8 h 8 v -8 h -8 z M 104 40 v 8 h 8 v -8 h -8 z M 104 48 v 8 h 8 v -8 h -8 z M 104 56 v 8 h 8 v -8 h -8 z M 104 64 v 8 h 8 v -8 h -8 z M 104 80 v 8 h 8 v -8 h -8 z M 104 88 v 8 h 8 v -8 h -8 z M 104 96 v 8 h 8 v -8 h -8 z M 104 104 v 8 h 8 v -8 h -8 z M 104 136 v 8 h 8 v -8 h -8 z M 104 144 v 8 h 8 v -8 h -8 z M 104 208 v 8 h 8 v -8 h -8 z M 104 216 v 8 h 8 v -8 h -8 z M 112 8 v 8 h 8 v -8 h -8 z M 112 64 v 8 h 8 v -8 h -8 z M 112 88 v 8 h 8 v -8 h -8 z M 112 104 v 8 h 8 v -8 h -8 z M 112 112 v 8 h 8 v -8 h -8 z M 112 120 v 8 h 8 v -8 h -8 z M 112 128 v 8 h 8 v -8 h -8 z M 112 152 v 8 h 8 v -8 h -8 z M 112 160 v 8 h 8 v -8 h -8 z M 112 168 v 8 h 8 v -8 h -8 z M 112 184 v 8 h 8 v -8 h -8 z M 112 192 v 8 h 8 v -8 h -8 z M 112 200 v 8 h 8 v -8 h -8 z M 112 232 v 8 h 8 v -8 h -8 z M 120 8 v 8 h 8 v -8 h -8 z M 120 16 v 8 h 8 v -8 h -8 z M 120 48 v 8 h 8 v -8 h -8 z M 120 56 v 8 h 8 v -8 h -8 z M 120 64 v 8 h 8 v -8 h -8 z M 120 72 v 8 h 8 v -8 h -8 z M 120 80 v 8 h 8 v -8 h -8 z M 120 112 v 8 h 8 v -8 h -8 z M 120 120 v 8 h 8 v -8 h -8 z M 120 128 v 8 h 8 v -8 h -8 z M 120 136 v 8 h 8 v -8 h -8 z M 120 144 v 8 h 8 v -8 h -8 z M 120 176 v 8 h 8 v -8 h -8 z M 120 208 v 8 h 8 v -8 h -8 z M 120 216 v 8 h 8 v -8 h -8 z M 128 32 v 8 h 8 v -8 h -8 z M 128 48 v 8 h 8 v -8 h -8 z M 128 64 v 8 h 8 v -8 h -8 z M 128 72 v 8 h 8 v -8 h -8 z M 128 80 v 8 h 8 v -8 h -8 z M 128 88 v 8 h 8 v -8 h -8 z M 128 104 v 8 h 8 v -8 h -8 z M 128 112 v 8 h 8 v -8 h -8 z M 128 128 v 8 h 8 v -8 h -8 z M 128 160 v 8 h 8 v -8 h -8 z M 128 176 v 8 h 8 v -8 h -8 z M 128 184 v 8 h 8 v -8 h -8 z M 128 192 v 8 h 8 v -8 h -8 z M 128 224 v 8 h 8 v -8 h -8 z M 136 24 v 8 h 8 v -8 h -8 z M 136 32 v 8 h 8 v -8 h -8 z M 136 40 v 8 h 8 v -8 h -8 z M 136 48 v 8 h 8 v -8 h -8 z M 136 56 v 8 h 8 v -8 h -8 z M 136 72 v 8 h 8 v -8 h -8 z M 136 88 v 8 h 8 v -8 h -8 z M 136 120 v 8 h 8 v -8 h -8 z M 136 128 v 8 h 8 v -8 h -8 z M 136 144 v 8 h 8 v -8 h -8 z M 136 152 v 8 h 8 v -8 h -8 z M 136 168 v 8 h 8 v -8 h -8 z M 136 208 v 8 h 8 v -8 h -8 z M 136 216 v 8 h 8 v -8 h -8 z M 144 8 v 8 h 8 v -8 h -8 z M 144 16 v 8 h 8 v -8 h -8 z M 144 24 v 8 h 8 v -8 h -8 z M 144 32 v 8 h 8 v -8 h -8 z M 144 40 v 8 h 8 v -8 h -8 z M 144 48 v 8 h 8 v -8 h -8 z M 144 72 v 8 h 8 v -8 h -8 z M 144 80 v 8 h 8 v -8 h -8 z M 144 88 v 8 h 8 v -8 h -8 z M 144 96 v 8 h 8 v -8 h -8 z M 144 128 v 8 h 8 v -8 h -8 z M 144 136 v 8 h 8 v -8 h -8 z M 144 144 v 8 h 8 v -8 h -8 z M 144 152 v 8 h 8 v -8 h -8 z M 144 160 v 8 h 8 v -8 h -8 z M 144 168 v 8 h 8 v -8 h -8 z M 144 176 v 8 h 8 v -8 h -8 z M 144 184 v 8 h 8 v -8 h -8 z M 144 200 v 8 h 8 v -8 h -8 z M 144 216 v 8 h 8 v -8 h -8 z M 144 232 v 8 h 8 v -8 h -8 z M 152 8 v 8 h 8 v -8 h -8 z M 152 24 v 8 h 8 v -8 h -8 z M 152 32 v 8 h 8 v -8 h -8 z M 152 48 v 8 h 8 v -8 h -8 z M 152 56 v 8 h 8 v -8 h -8 z M 152 80 v 8 h 8 v -8 h -8 z M 152 88 v 8 h 8 v -8 h -8 z M 152 96 v 8 h 8 v -8 h -8 z M 152 104 v 8 h 8 v -8 h -8 z M 152 144 v 8 h 8 v -8 h -8 z M 152 168 v 8 h 8 v -8 h -8 z M 152 192 v 8 h 8 v -8 h -8 z M 152 216 v 8 h 8 v -8 h -8 z M 160 8 v 8 h 8 v -8 h -8 z M 160 32 v 8 h 8 v -8 h -8 z M 160 48 v 8 h 8 v -8 h -8 z M 160 72 v 8 h 8 v -8 h -8 z M 160 88 v 8 h 8 v -8 h -8 z M 160 104 v 8 h 8 v -8 h -8 z M 160 120 v 8 h 8 v -8 h -8 z M 160 136 v 8 h 8 v -8 h -8 z M 160 168 v 8 h 8 v -8 h -8 z M 160 192 v 8 h 8 v -8 h -8 z M 160 224 v 8 h 8 v -8 h -8 z M 168 8 v 8 h 8 v -8 h -8 z M 168 24 v 8 h 8 v -8 h -8 z M 168 56 v 8 h 8 v -8 h -8 z M 168 80 v 8 h 8 v -8 h -8 z M 168 96 v 8 h 8 v -8 h -8 z M 168 144 v 8 h 8 v -8 h -8 z M 168 168 v 8 h 8 v -8 h -8 z M 168 176 v 8 h 8 v -8 h -8 z M 168 184 v 8 h 8 v -8 h -8 z M 168 192 v 8 h 8 v -8 h -8 z M 168 200 v 8 h 8 v -8 h -8 z M 168 216 v 8 h 8 v -8 h -8 z M 168 224 v 8 h 8 v -8 h -8 z M 168 232 v 8 h 8 v -8 h -8 z M 176 72 v 8 h 8 v -8 h -8 z M 176 80 v 8 h 8 v -8 h -8 z M 176 104 v 8 h 8 v -8 h -8 z M 176 112 v 8 h 8 v -8 h -8 z M 176 120 v 8 h 8 v -8 h -8 z M 176 128 v 8 h 8 v -8 h -8 z M 176 144 v 8 h 8 v -8 h -8 z M 176 152 v 8 h 8 v -8 h -8 z M 176 168 v 8 h 8 v -8 h -8 z M 176 200 v 8 h 8 v -8 h -8 z M 176 208 v 8 h 8 v -8 h -8 z M 176 216 v 8 h 8 v -8 h -8 z M 176 224 v 8 h 8 v -8 h -8 z M 176 232 v 8 h 8 v -8 h -8 z M 184 104 v 8 h 8 v -8 h -8 z M 184 112 v 8 h 8 v -8 h -8 z M 184 120 v 8 h 8 v -8 h -8 z M 184 128 v 8 h 8 v -8 h -8 z M 184 160 v 8 h 8 v -8 h -8 z M 184 168 v 8 h 8 v -8 h -8 z M 184 184 v 8 h 8 v -8 h -8 z M 184 200 v 8 h 8 v -8 h -8 z M 184 208 v 8 h 8 v -8 h -8 z M 184 216 v 8 h 8 v -8 h -8 z M 192 72 v 8 h 8 v -8 h -8 z M 192 80 v 8 h 8 v -8 h -8 z M 192 88 v 8 h 8 v -8 h -8 z M 192 112 v 8 h 8 v -8 h -8 z M 192 128 v 8 h 8 v -8 h -8 z M 192 136 v 8 h 8 v -8 h -8 z M 192 160 v 8 h 8 v -8 h -8 z M 192 168 v 8 h 8 v -8 h -8 z M 192 200 v 8 h 8 v -8 h -8 z M 192 232 v 8 h 8 v -8 h -8 z M 200 72 v 8 h 8 v -8 h -8 z M 200 88 v 8 h 8 v -8 h -8 z M 200 96 v 8 h 8 v -8 h -8 z M 200 104 v 8 h 8 v -8 h -8 z M 200 120 v 8 h 8 v -8 h -8 z M 200 128 v 8 h 8 v -8 h -8 z M 200 136 v 8 h 8 v -8 h -8 z M 200 144 v 8 h 8 v -8 h -8 z M 200 168 v 8 h 8 v -8 h -8 z M 200 176 v 8 h 8 v -8 h -8 z M 200 184 v 8 h 8 v -8 h -8 z M 200 192 v 8 h 8 v -8 h -8 z M 200 200 v 8 h 8 v -8 h -8 z M 200 216 v 8 h 8 v -8 h -8 z M 200 232 v 8 h 8 v -8 h -8 z M 208 72 v 8 h 8 v -8 h -8 z M 208 80 v 8 h 8 v -8 h -8 z M 208 88 v 8 h 8 v -8 h -8 z M 208 96 v 8 h 8 v -8 h -8 z M 208 136 v 8 h 8 v -8 h -8 z M 208 144 v 8 h 8 v -8 h -8 z M 208 152 v 8 h 8 v -8 h -8 z M 208 208 v 8 h 8 v -8 h -8 z M 208 216 v 8 h 8 v -8 h -8 z M 216 72 v 8 h 8 v -8 h -8 z M 216 96 v 8 h 8 v -8 h -8 z M 216 104 v 8 h 8 v -8 h -8 z M 216 120 v 8 h 8 v -8 h -8 z M 216 128 v 8 h 8 v -8 h -8 z M 216 152 v 8 h 8 v -8 h -8 z M 216 168 v 8 h 8 v -8 h -8 z M 216 184 v 8 h 8 v -8 h -8 z M 216 192 v 8 h 8 v -8 h -8 z M 216 200 v 8 h 8 v -8 h -8 z M 216 208 v 8 h 8 v -8 h -8 z M 216 216 v 8 h 8 v -8 h -8 z M 216 224 v 8 h 8 v -8 h -8 z M 224 88 v 8 h 8 v -8 h -8 z M 224 96 v 8 h 8 v -8 h -8 z M 224 104 v 8 h 8 v -8 h -8 z M 224 120 v 8 h 8 v -8 h -8 z M 224 128 v 8 h 8 v -8 h -8 z M 224 136 v 8 h 8 v -8 h -8 z M 224 168 v 8 h 8 v -8 h -8 z M 224 192 v 8 h 8 v -8 h -8 z M 224 208 v 8 h 8 v -8 h -8 z M 224 224 v 8 h 8 v -8 h -8 z M 232 72 v 8 h 8 v -8 h -8 z M 232 80 v 8 h 8 v -8 h -8 z M 232 104 v 8 h 8 v -8 h -8 z M 232 112 v 8 h 8 v -8 h -8 z M 232 128 v 8 h 8 v -8 h -8 z M 232 136 v 8 h 8 v -8 h -8 z M 232 144 v 8 h 8 v -8 h -8 z M 232 160 v 8 h 8 v -8 h -8 z M 232 176 v 8 h 8 v -8 h -8 z M 232 192 v 8 h 8 v -8 h -8 z M 232 200 v 8 h 8 v -8 h -8 z M 232 216 v 8 h 8 v -8 h -8 z" fill="#000000"/></svg>